<svg width="512" height="842" viewBox="0 0 512 842" fill="none" xmlns="http://www.w3.org/2000/svg">
<path d="M308.547 507.722C330.542 513.112 348.371 521.82 364.824 536.897L365.684 537.691C385.286 555.972 399.683 584.979 400.494 611.028C401.439 641.443 394.299 670.673 376.96 694.238C368.17 706.184 357.227 717.269 345.862 729.345C332.437 743.386 318.742 757.166 304.78 770.67L304.731 770.716L304.684 770.764C290.502 784.729 277.566 798.246 263.008 808.81C248.793 819.124 234.191 825.695 217.525 826.218L217.412 826.221L217.3 826.227C207.527 826.68 199.028 826.613 191.228 824.863H191.226C169.425 819.977 146.096 801.883 133.531 782.011C121.447 762.898 118.434 743.441 123.532 721.042C126.843 706.497 133.503 692.333 142.379 679.771L143.245 678.56C151.652 666.946 161.531 657.136 172.51 645.422L174.72 643.053C203.712 611.822 234.211 582.228 264.774 551.553L264.773 551.552L297.52 518.807C299.078 517.269 300.626 515.657 302.027 514.201C303.477 512.695 304.803 511.32 306.133 510.008C306.986 509.167 307.789 508.408 308.547 507.722ZM336.409 17.9775C349.649 14.5677 364.4 14.31 379.023 16.0791C383.905 17.0512 388.78 18.4747 394.502 20.1162L404.286 23.1016C406.181 23.8807 410.465 25.7694 414.556 26.9727C441.961 41.0953 462.918 57.7124 478.333 83.0244L478.335 83.0264C479.878 85.5602 481.305 88.2739 482.887 91.3799C484.275 94.1066 485.869 97.3073 487.583 100.456C490.3 107.14 492.607 112.848 494.26 118.714C495.575 128.692 496.868 136.369 496.951 144.655C495.793 158.728 493.988 170.472 489.325 182.138C482.611 196.304 479.03 206.137 471.477 215.98L471.476 215.981C461.913 228.445 450.529 239.459 438.276 251.712L389.828 299.901L389.752 299.978C332.869 357.374 274.676 413.347 216.79 470.225C192.195 494.388 166.617 518.804 142.203 544.127C140.322 542.25 138.539 540.458 136.809 538.63L136.801 538.621L136.793 538.613L77.1025 475.714C61.0413 458.675 46.3318 444.221 34.9863 426.602V426.601L34.3945 425.669C28.3038 415.945 22.9485 403.281 19.5176 391.764H19.5166C15.4992 378.277 13.6798 355.404 16.0605 341.891C18.1195 330.205 25.55 311.301 31.6885 300.138C44.6488 276.568 63.9706 258.397 84.9062 236.588L84.9238 236.57C108.687 211.734 132.954 187.381 157.708 163.527C163.09 158.342 168.595 153.262 174.245 148.037C179.854 142.85 185.597 137.528 191.241 132.043L191.242 132.044C195.389 128.015 199.433 123.895 203.31 119.967C207.234 115.991 211.02 112.176 214.881 108.503C218.018 105.518 221.268 102.645 224.802 99.4922C227.825 96.7959 231.027 93.9204 234.187 90.873L235.538 89.5566C254.742 70.6393 271.477 52.6798 291.479 38.2217L291.48 38.2207C304.463 28.8359 319.553 22.8264 336.409 17.9775Z" fill="black" stroke="black" stroke-width="30"/>
</svg>
