<svg width="512" height="842" viewBox="0 0 512 842" fill="none" xmlns="http://www.w3.org/2000/svg">
<path d="M310.304 514.741C330.396 520.073 346.59 528.448 361.623 542.468C380.203 559.795 393.773 587.344 394.528 611.603C395.441 640.991 388.532 668.817 372.158 691.071C363.635 702.654 353.028 713.395 341.496 725.65C328.144 739.613 314.523 753.316 300.64 766.745L300.572 766.81L300.505 766.877C286.123 781.039 273.607 794.116 259.516 804.342C245.904 814.218 232.446 820.136 217.368 820.609L217.211 820.614L217.053 820.621C207.386 821.07 199.553 820.963 192.572 819.397L192.568 819.396C172.578 814.915 150.498 797.957 138.634 779.193C127.447 761.5 124.651 743.689 129.414 722.762C132.53 709.073 138.831 695.623 147.309 683.623L148.137 682.467C156.82 670.471 167.014 660.593 179.147 647.522L179.148 647.523C208.036 616.405 238.38 586.963 269.029 556.203L301.863 523.367C303.453 521.795 305.021 520.164 306.382 518.751C307.81 517.266 309.062 515.968 310.304 514.741ZM338.014 24.157C350.242 21.0211 364.094 20.722 378.116 22.3982C382.621 23.3091 387.177 24.637 392.884 26.2742L402.254 29.1335C403.922 29.8363 408.14 31.6497 412.295 32.9314C438.819 46.6643 458.649 62.5734 473.24 86.533L473.241 86.5359C474.659 88.8632 476 91.4056 477.571 94.491C478.882 97.0649 480.472 100.258 482.183 103.419C484.794 109.844 486.887 115.058 488.4 120.319C489.712 130.226 490.877 137.241 490.976 144.856C489.841 158.501 488.105 169.421 483.852 180.129C476.938 194.729 473.771 203.564 466.748 212.717L466.746 212.718C457.474 224.803 446.425 235.497 434.036 247.886L385.628 296.036L385.575 296.09L385.521 296.142C328.674 353.503 270.565 409.394 212.616 466.333C198.292 480.405 176.99 501.672 159.315 519.374C153.125 525.573 147.372 531.344 142.507 536.227L141.055 534.744L81.4862 471.972C65.2008 454.696 51.0233 440.764 40.0624 423.742L40.0614 423.741L39.5048 422.864C33.7684 413.704 28.6131 401.566 25.2987 390.439C21.5114 377.726 19.8026 355.801 22.0009 343.321C23.9134 332.466 31.0524 314.192 36.9774 303.418V303.417C49.4533 280.728 68.0108 263.274 89.2665 241.132L89.2782 241.119L89.2899 241.107C112.997 216.329 137.206 192.034 161.901 168.236L161.902 168.237C167.232 163.102 172.687 158.067 178.35 152.83C183.254 148.295 188.304 143.618 193.311 138.805L195.455 136.735C199.658 132.652 203.753 128.479 207.611 124.57C211.536 120.593 215.263 116.838 219.049 113.236C222.099 110.334 225.261 107.539 228.827 104.358C232.282 101.276 236.07 97.8732 239.779 94.2195C259.236 75.0532 275.504 57.5825 295.025 43.4724L295.026 43.4714C307.19 34.6784 321.507 28.9111 338.014 24.157Z" stroke="black" stroke-width="42"/>
</svg>
