<svg width="639" height="972" viewBox="0 0 639 972" fill="none" xmlns="http://www.w3.org/2000/svg">
<path d="M370.043 558.931C397.628 564.689 420.247 574.806 440.945 594.109C463.103 614.773 479.568 647.428 480.519 677.95C481.543 710.933 473.824 743.673 454.073 770.517C444.574 783.426 432.732 795.412 421.735 807.099C408.176 821.28 394.342 835.199 380.239 848.84C352.877 875.785 324.297 907.305 283.026 908.599C272.989 909.065 262.824 909.097 252.976 906.888C226.648 900.987 200.2 880.058 185.884 857.416C171.556 834.755 168.001 811.183 173.938 785.101C177.858 767.88 185.783 751.44 196.126 737.152C205.804 723.782 217.561 712.298 228.758 700.235C257.99 668.746 288.853 638.792 319.18 608.354L352.015 575.519C357.596 570.009 363.398 563.088 370.043 558.931ZM397.507 70.8887C413.305 66.7853 430.318 66.6438 446.415 68.6436C452.293 69.7777 458.054 71.4763 463.806 73.126L474.335 76.3379C477.763 77.6787 481.452 79.4614 485.023 80.293C514.721 95.3923 538.628 113.796 556.176 142.61C559.892 148.711 562.744 155.178 566.191 161.41C569.1 168.568 572.01 175.62 574.023 183.094C575.312 193.032 576.96 202.555 576.987 212.62C575.779 227.619 573.817 241.426 568.128 255.49C561.945 268.489 557.321 280.885 548.407 292.501C538.092 305.945 525.838 317.783 513.886 329.735L465.438 377.925C408.465 435.411 350.064 491.588 292.333 548.312C263.846 576.299 234.694 604.007 207.384 633.12C202.121 627.359 196.317 622.006 190.943 616.327L131.254 553.428C115.757 536.985 99.7144 521.225 87.4062 502.11C80.1309 490.813 74.0151 476.333 70.1729 463.435C65.5802 448.017 63.4831 422.777 66.3193 406.677C68.7441 392.915 76.9038 372.433 83.5762 360.299C97.7476 334.527 118.982 314.565 139.117 293.589C163.021 268.605 187.431 244.108 212.332 220.113C223.362 209.486 234.834 199.35 245.82 188.674C253.835 180.886 261.475 172.73 269.573 165.023C276.283 158.64 283.441 152.761 290.042 146.259C308.614 127.963 326.517 108.782 347.724 93.4531C362.761 82.583 379.792 75.9708 397.507 70.8887Z" fill="url(#paint0_linear_17_6)"/>
<path d="M370.043 558.931C397.628 564.689 420.247 574.806 440.945 594.109C463.103 614.773 479.568 647.428 480.519 677.95C481.543 710.933 473.824 743.673 454.073 770.517C444.574 783.426 432.732 795.412 421.735 807.099C408.176 821.28 394.342 835.199 380.239 848.84C352.877 875.785 324.297 907.305 283.026 908.599C272.989 909.065 262.824 909.097 252.976 906.888C226.648 900.987 200.2 880.058 185.884 857.416C171.556 834.755 168.001 811.183 173.938 785.101C177.858 767.88 185.783 751.44 196.126 737.152C205.804 723.782 217.561 712.298 228.758 700.235C257.99 668.746 288.853 638.792 319.18 608.354L352.015 575.519C357.596 570.009 363.398 563.088 370.043 558.931ZM397.507 70.8887C413.305 66.7853 430.318 66.6438 446.415 68.6436C452.293 69.7777 458.054 71.4763 463.806 73.126L474.335 76.3379C477.763 77.6787 481.452 79.4614 485.023 80.293C514.721 95.3923 538.628 113.796 556.176 142.61C559.892 148.711 562.744 155.178 566.191 161.41C569.1 168.568 572.01 175.62 574.023 183.094C575.312 193.032 576.96 202.555 576.987 212.62C575.779 227.619 573.817 241.426 568.128 255.49C561.945 268.489 557.321 280.885 548.407 292.501C538.092 305.945 525.838 317.783 513.886 329.735L465.438 377.925C408.465 435.411 350.064 491.588 292.333 548.312C263.846 576.299 234.694 604.007 207.384 633.12C202.121 627.359 196.317 622.006 190.943 616.327L131.254 553.428C115.757 536.985 99.7144 521.225 87.4062 502.11C80.1309 490.813 74.0151 476.333 70.1729 463.435C65.5802 448.017 63.4831 422.777 66.3193 406.677C68.7441 392.915 76.9038 372.433 83.5762 360.299C97.7476 334.527 118.982 314.565 139.117 293.589C163.021 268.605 187.431 244.108 212.332 220.113C223.362 209.486 234.834 199.35 245.82 188.674C253.835 180.886 261.475 172.73 269.573 165.023C276.283 158.64 283.441 152.761 290.042 146.259C308.614 127.963 326.517 108.782 347.724 93.4531C362.761 82.583 379.792 75.9708 397.507 70.8887Z" stroke="black"/>
<defs>
<linearGradient id="paint0_linear_17_6" x1="320.537" y1="964.694" x2="319.666" y2="5.51863" gradientUnits="userSpaceOnUse">
<stop stop-color="#CFDAFF"/>
<stop offset="1" stop-color="#A7D8F9"/>
</linearGradient>
</defs>
</svg>
